<svg width="20" height="20" viewBox="0 0 20 20" fill="none" xmlns="http://www.w3.org/2000/svg">
<g clip-path="url(#clip0_147_2176)">
<mask id="mask0_147_2176" style="mask-type:luminance" maskUnits="userSpaceOnUse" x="0" y="0" width="20" height="20">
<path d="M9.99984 18.3334C11.0944 18.3348 12.1784 18.1199 13.1897 17.7011C14.2009 17.2822 15.1194 16.6676 15.8923 15.8926C16.6673 15.1196 17.2819 14.2012 17.7008 13.1899C18.1197 12.1787 18.3346 11.0946 18.3332 10.0001C18.3346 8.90554 18.1197 7.8215 17.7008 6.81027C17.2819 5.79904 16.6673 4.88055 15.8923 4.10759C15.1194 3.3326 14.2009 2.718 13.1897 2.29912C12.1784 1.88024 11.0944 1.66534 9.99984 1.66676C8.90529 1.66536 7.82125 1.88028 6.81002 2.29916C5.79879 2.71804 4.88031 3.33262 4.10734 4.10759C3.33237 4.88055 2.71779 5.79904 2.29891 6.81027C1.88003 7.8215 1.66512 8.90554 1.66651 10.0001C1.66509 11.0946 1.88 12.1787 2.29888 13.1899C2.71776 14.2012 3.33236 15.1196 4.10734 15.8926C4.88031 16.6676 5.79879 17.2821 6.81002 17.701C7.82125 18.1199 8.90529 18.3348 9.99984 18.3334Z" fill="white" stroke="white" stroke-width="1.66667" stroke-linejoin="round"/>
<path d="M6.6665 10L9.1665 12.5L14.1665 7.5" stroke="black" stroke-width="1.66667" stroke-linecap="round" stroke-linejoin="round"/>
</mask>
<g mask="url(#mask0_147_2176)">
<path d="M0 0H20V20H0V0Z" fill="url(#paint0_linear_147_2176)"/>
</g>
</g>
<defs>
<linearGradient id="paint0_linear_147_2176" x1="0" y1="20" x2="21.8182" y2="20" gradientUnits="userSpaceOnUse">
<stop stop-color="#6839EF"/>
<stop offset="1" stop-color="#B547DB"/>
</linearGradient>
<clipPath id="clip0_147_2176">
<rect width="20" height="20" fill="white"/>
</clipPath>
</defs>
</svg>
