<svg width="39" height="39" viewBox="0 0 39 39" fill="none" xmlns="http://www.w3.org/2000/svg">
<g clip-path="url(#clip0_147_246)">
<path d="M12.5356 13.7246V23.4746V31.8317H21.5892C21.7737 31.8317 21.9513 31.9047 22.0816 32.0357L25.7678 35.722L29.454 32.0357C29.585 31.9047 29.7619 31.8317 29.9464 31.8317H39V13.7246H27.1607H12.5356ZM34.125 23.4746C34.125 28.0829 30.3762 31.8317 25.768 31.8317C21.1597 31.8317 17.4109 28.0829 17.4109 23.4746C17.4109 18.8663 21.1597 15.1175 25.768 15.1175C30.3762 15.1175 34.125 18.8663 34.125 23.4746Z" fill="#480FFF"/>
<path d="M23.6786 26.2605C24.4479 26.2605 25.0715 25.6368 25.0715 24.8675C25.0715 24.0982 24.4479 23.4746 23.6786 23.4746C22.9093 23.4746 22.2856 24.0982 22.2856 24.8675C22.2856 25.6368 22.9093 26.2605 23.6786 26.2605Z" fill="#480FFF"/>
<path d="M18.8037 23.4746C18.8037 27.3147 21.9279 30.4389 25.768 30.4389C29.6082 30.4389 32.7323 27.3147 32.7323 23.4746C32.7323 19.6344 29.6082 16.5103 25.768 16.5103C21.9279 16.5103 18.8037 19.6344 18.8037 23.4746ZM28.5537 20.6889C28.5537 21.2104 28.4005 21.6938 28.1498 22.111C29.5469 22.2599 30.6431 23.4314 30.6431 24.8675C30.6431 26.4039 29.3936 27.6532 27.8574 27.6532C27.0218 27.6532 26.2793 27.2758 25.7682 26.6908C25.257 27.2758 24.5146 27.6532 23.679 27.6532C22.1426 27.6532 20.8933 26.4037 20.8933 24.8675C20.8933 23.4315 21.9895 22.2601 23.3866 22.111C23.1359 21.693 22.9827 21.2104 22.9827 20.6889C22.9827 19.1525 24.2322 17.9032 25.7684 17.9032C27.3044 17.9032 28.5537 19.1525 28.5537 20.6889Z" fill="#480FFF"/>
<path d="M27.8573 26.2605C28.6266 26.2605 29.2502 25.6368 29.2502 24.8675C29.2502 24.0982 28.6266 23.4746 27.8573 23.4746C27.088 23.4746 26.4644 24.0982 26.4644 24.8675C26.4644 25.6368 27.088 26.2605 27.8573 26.2605Z" fill="#480FFF"/>
<path d="M3.48193 6.06372H22.9819V8.84941H3.48193V6.06372Z" fill="#480FFF"/>
<path d="M25.7679 19.2959C26.5367 19.2959 27.1609 19.9191 27.1609 20.6888C27.1609 21.4584 26.5369 22.0818 25.7679 22.0818C24.9989 22.0818 24.375 21.4578 24.375 20.6888C24.375 19.9198 24.9984 19.2959 25.7679 19.2959Z" fill="#480FFF"/>
<path d="M11.1429 13.0281C11.1429 12.6429 11.4549 12.3316 11.8394 12.3316H26.4645V3.27808H0V22.7781H11.1429V13.0281ZM2.08922 5.3673C2.08922 4.98209 2.40119 4.67083 2.78569 4.67083H23.6786C24.0631 4.67083 24.3751 4.98209 24.3751 5.3673V9.54592C24.3751 9.93113 24.0631 10.2424 23.6786 10.2424H2.78569C2.40119 10.2424 2.08922 9.93113 2.08922 9.54592V5.3673ZM8.35707 20.6889H2.78569C2.40119 20.6889 2.08922 20.3776 2.08922 19.9924C2.08922 19.6072 2.40119 19.2959 2.78569 19.2959H8.35707C8.74156 19.2959 9.05353 19.6072 9.05353 19.9924C9.05353 20.3776 8.74156 20.6889 8.35707 20.6889ZM8.35707 17.2067H2.78569C2.40119 17.2067 2.08922 16.8954 2.08922 16.5102C2.08922 16.125 2.40119 15.8138 2.78569 15.8138H8.35707C8.74156 15.8138 9.05353 16.125 9.05353 16.5102C9.05353 16.8954 8.74156 17.2067 8.35707 17.2067ZM8.35707 13.7245H2.78569C2.40119 13.7245 2.08922 13.4133 2.08922 13.0281C2.08922 12.6429 2.40119 12.3316 2.78569 12.3316H8.35707C8.74156 12.3316 9.05353 12.6429 9.05353 13.0281C9.05353 13.4133 8.74156 13.7245 8.35707 13.7245Z" fill="#480FFF"/>
</g>
<defs>
<clipPath id="clip0_147_246">
<rect width="39" height="39" fill="white"/>
</clipPath>
</defs>
</svg>
