<svg width="30" height="30" viewBox="0 0 30 30" fill="none" xmlns="http://www.w3.org/2000/svg">
<g clip-path="url(#clip0_147_2264)">
<path d="M15.3685 12.4377C15.2472 12.4271 15.1243 12.4219 15 12.4219C14.8757 12.4219 14.7528 12.4271 14.6315 12.4377C12.3802 12.6251 10.6055 14.5173 10.6055 16.8164C10.6055 19.2398 12.5771 21.2109 15 21.2109C17.4229 21.2109 19.3945 19.2398 19.3945 16.8164C19.3945 14.5173 17.6198 12.6251 15.3685 12.4377Z" fill="#480FFF"/>
<path d="M24.7266 15.9375C22.7884 15.9375 21.2109 17.515 21.2109 19.4531C21.2109 21.3913 22.7884 22.9688 24.7266 22.9688C26.6647 22.9688 28.2422 21.3913 28.2422 19.4531C28.2422 17.515 26.6647 15.9375 24.7266 15.9375Z" fill="#480FFF"/>
<path d="M0 0V6.15234C0 7.60597 1.18309 8.78906 2.63672 8.78906H3.86375L6.15234 13.1374L8.44093 8.78906H12.7114L15 13.1374L17.2886 8.78906H21.5591L23.8477 13.1374L26.1362 8.78906H27.3633C28.8169 8.78906 30 7.60597 30 6.15234V0H0ZM12.3633 5.27344H10.6055V3.51562H12.3633V5.27344ZM15.8789 5.27344H14.1211V3.51562H15.8789V5.27344ZM19.3945 5.27344H17.6367V3.51562H19.3945V5.27344Z" fill="#480FFF"/>
<path d="M15 21.2109C11.594 21.2109 8.84766 23.9857 8.84766 27.3633V30H21.1523V27.3633C21.1523 23.9843 18.4044 21.2109 15 21.2109Z" fill="#480FFF"/>
<path d="M24.7265 22.9688C23.7375 22.9688 22.811 23.2425 22.0195 23.7181C22.5885 24.8099 22.9101 26.0495 22.9101 27.3633V30H30V28.2422C30 25.3342 27.6345 22.9688 24.7265 22.9688Z" fill="#480FFF"/>
<path d="M5.27344 15.9375C3.33527 15.9375 1.75781 17.515 1.75781 19.4531C1.75781 21.3913 3.33527 22.9688 5.27344 22.9688C7.21161 22.9688 8.78906 21.3913 8.78906 19.4531C8.78906 17.515 7.21161 15.9375 5.27344 15.9375Z" fill="#480FFF"/>
<path d="M5.27344 22.9688C2.36549 22.9688 0 25.3342 0 28.2422V30H7.08984V27.3633C7.08984 26.0495 7.41142 24.8099 7.98042 23.7181C7.18895 23.2425 6.26244 22.9688 5.27344 22.9688Z" fill="#480FFF"/>
</g>
<defs>
<clipPath id="clip0_147_2264">
<rect width="30" height="30" fill="white"/>
</clipPath>
</defs>
</svg>
