<svg width="33" height="33" viewBox="0 0 33 33" fill="none" xmlns="http://www.w3.org/2000/svg">
<path d="M32.2228 16.1418C31.0094 17.6345 29.3105 18.7228 27.4373 19.1866C27.1963 19.2461 26.9523 19.2956 26.7066 19.3338C24.2923 19.7109 21.7318 19.0309 19.8237 17.5046C17.9155 15.979 16.6886 13.6306 16.5254 11.1929C15.2155 11.2005 13.906 11.1965 12.596 11.1965C10.9018 11.1965 9.20768 11.1965 7.51343 11.1965C6.01546 11.1965 4.5169 11.1965 3.01834 11.1965C2.44256 11.1965 1.86693 11.1965 1.29054 11.1965C0.578639 11.1965 0 11.7751 0 12.4864V28.7631C0 29.4744 0.578639 30.053 1.29054 30.053H31.7095C32.4214 30.053 33 29.4744 33 28.7631V15.0134C32.7714 15.4111 32.511 15.7877 32.2228 16.1418ZM20.6251 20.6257H29.4644C29.7897 20.6257 30.0537 20.8891 30.0537 21.215C30.0537 21.541 29.7897 21.8044 29.4644 21.8044H20.6251C20.2997 21.8044 20.0358 21.541 20.0358 21.215C20.0358 20.8891 20.2997 20.6257 20.6251 20.6257ZM2.35712 15.4458C2.35712 14.4028 3.20575 13.5542 4.24871 13.5542H11.662C12.7049 13.5542 13.5536 14.4028 13.5536 15.4458V19.9126C13.5536 20.9556 12.7049 21.8042 11.662 21.8042H4.24871C3.20575 21.8042 2.35712 20.9556 2.35712 19.9126V15.4458ZM6.4822 27.6971H4.12507C3.1504 27.6971 2.35727 26.904 2.35727 25.9293C2.35727 24.9546 3.1504 24.1615 4.12507 24.1615H6.4822C7.45687 24.1615 8.25 24.9546 8.25 25.9293C8.25 26.904 7.45687 27.6971 6.4822 27.6971ZM14.1429 27.6971H11.7858C10.8111 27.6971 10.018 26.904 10.018 25.9293C10.018 24.9546 10.8111 24.1615 11.7858 24.1615H14.1429C15.1176 24.1615 15.9107 24.9546 15.9107 25.9293C15.9107 26.904 15.1176 27.6971 14.1429 27.6971ZM15.9107 21.2149C15.9107 20.8889 16.1747 20.6256 16.5 20.6256H18.2678C18.5931 20.6256 18.8571 20.8889 18.8571 21.2149C18.8571 21.5408 18.5931 21.8042 18.2678 21.8042H16.5C16.1748 21.8042 15.9107 21.5408 15.9107 21.2149ZM21.2142 27.6971H18.8571C17.8824 27.6971 17.0893 26.904 17.0893 25.9293C17.0893 24.9546 17.8824 24.1615 18.8571 24.1615H21.2142C22.1889 24.1615 22.982 24.9546 22.982 25.9293C22.982 26.904 22.1889 27.6971 21.2142 27.6971ZM28.8751 27.6971H26.518C25.5433 27.6971 24.7501 26.904 24.7501 25.9293C24.7501 24.9546 25.5433 24.1615 26.518 24.1615H28.8751C29.8497 24.1615 30.6429 24.9546 30.6429 25.9293C30.6429 26.904 29.8497 27.6971 28.8751 27.6971Z" fill="#480FFF"/>
<path d="M28.8752 25.3398H26.518C26.1933 25.3398 25.9287 25.6038 25.9287 25.9292C25.9287 26.2545 26.1933 26.5185 26.518 26.5185H28.8752C29.2005 26.5185 29.4645 26.2545 29.4645 25.9292C29.4645 25.6038 29.2003 25.3398 28.8752 25.3398Z" fill="#480FFF"/>
<path d="M25.3394 9.42934C25.4295 9.42934 25.5203 9.44995 25.6028 9.49116L27.5574 10.4682L25.3392 6.03271L23.1211 10.4682L25.0754 9.49116C25.159 9.44995 25.2487 9.42934 25.3394 9.42934Z" fill="#480FFF"/>
<path d="M5.89307 19.447V20.6257H11.6622C12.0552 20.6257 12.3753 20.3057 12.3753 19.9125V19.447H5.89307Z" fill="#480FFF"/>
<path d="M5.89307 15.9113H12.3753V15.4458C12.3753 15.0527 12.0553 14.7327 11.6622 14.7327H5.89307V15.9113Z" fill="#480FFF"/>
<path d="M5.89307 17.0898H12.3753V18.2685H5.89307V17.0898Z" fill="#480FFF"/>
<path d="M4.24875 20.6258H4.71428V14.7329H4.24875C3.85572 14.7329 3.53564 15.0528 3.53564 15.446V19.9128C3.53579 20.3057 3.85572 20.6258 4.24875 20.6258Z" fill="#480FFF"/>
<path d="M21.214 25.3398H18.8569C18.5322 25.3398 18.2676 25.6038 18.2676 25.9292C18.2676 26.2545 18.5322 26.5185 18.8569 26.5185H21.214C21.5394 26.5185 21.8033 26.2545 21.8033 25.9292C21.8033 25.6038 21.5394 25.3398 21.214 25.3398Z" fill="#480FFF"/>
<path d="M14.1427 25.3398H11.7856C11.4609 25.3398 11.1963 25.6038 11.1963 25.9292C11.1963 26.2545 11.4609 26.5185 11.7856 26.5185H14.1427C14.4681 26.5185 14.732 26.2545 14.732 25.9292C14.732 25.6038 14.4681 25.3398 14.1427 25.3398Z" fill="#480FFF"/>
<path d="M6.48208 25.3398H4.12496C3.80022 25.3398 3.53564 25.6038 3.53564 25.9292C3.53564 26.2545 3.80022 26.5185 4.12496 26.5185H6.48208C6.80743 26.5185 7.0714 26.2545 7.0714 25.9292C7.0714 25.6038 6.80728 25.3398 6.48208 25.3398Z" fill="#480FFF"/>
<path d="M27.98 11.9979L25.3394 10.6772L22.6987 11.9979L25.3394 15.5183L27.98 11.9979Z" fill="#480FFF"/>
<path d="M33.0001 10.6077C33.0001 6.38366 29.5633 2.94702 25.3394 2.94702C21.1155 2.94702 17.6787 6.38381 17.6787 10.6077C17.6787 14.8316 21.1155 18.2684 25.3394 18.2684C29.5633 18.2684 33.0001 14.8317 33.0001 10.6077ZM21.3405 12.1345C21.294 12.0556 21.2563 11.9725 21.2363 11.8829C21.1997 11.7203 21.2474 11.5818 21.3193 11.4374C21.3688 11.3372 21.4195 11.237 21.4696 11.1369C21.6534 10.7685 21.8379 10.4009 22.0217 10.0331C22.274 9.52804 22.5268 9.0225 22.7795 8.51741C23.0494 7.97879 23.3187 7.43956 23.588 6.90048C23.8225 6.43134 24.0571 5.96235 24.2916 5.49321C24.4395 5.19735 24.5875 4.90164 24.7353 4.60517C24.7606 4.55388 24.7866 4.50199 24.8125 4.45085C25.0122 4.05135 25.667 4.05135 25.8667 4.45085C25.9487 4.61405 26.0299 4.77679 26.1113 4.93999C26.3169 5.35077 26.5221 5.7608 26.7271 6.17157C26.9975 6.71261 27.2681 7.25349 27.5386 7.79453C27.8155 8.3485 28.0926 8.90292 28.3701 9.45689C28.5952 9.90708 28.8203 10.3573 29.0454 10.8076C29.1096 10.9361 29.1739 11.0651 29.2387 11.1936C29.3324 11.3816 29.4621 11.569 29.4591 11.7851C29.456 12.0214 29.3076 12.1929 29.1745 12.3708C29.0632 12.5193 28.9517 12.6679 28.8404 12.8164C28.5122 13.2536 28.1845 13.6909 27.8563 14.1287C27.4956 14.609 27.1356 15.0899 26.7749 15.5701C26.5116 15.9213 26.248 16.272 25.9853 16.6232C25.9275 16.7003 25.8697 16.777 25.812 16.8542C25.7007 17.0027 25.5262 17.0899 25.3406 17.0899C25.1556 17.0899 24.9805 17.0027 24.8692 16.8542C24.7343 16.6739 24.5988 16.4935 24.4638 16.3132C24.1468 15.8907 23.8297 15.4681 23.5128 15.0456C23.1468 14.5577 22.7803 14.0692 22.4143 13.5812C22.1314 13.2041 21.8492 12.8275 21.5663 12.4504C21.4896 12.349 21.4059 12.246 21.3405 12.1345Z" fill="#480FFF"/>
</svg>
