<svg width="36" height="36" viewBox="0 0 36 36" fill="none" xmlns="http://www.w3.org/2000/svg">
<path d="M33.1875 10.6875H29.25C28.9395 10.6875 28.6875 10.4355 28.6875 10.125V6.1875L33.1875 10.6875Z" fill="#480FFF"/>
<path d="M28.125 12.375C27.504 12.375 27 11.871 27 11.25V5.625H15.1875C14.877 5.625 14.625 5.877 14.625 6.1875V29.8125C14.625 30.123 14.877 30.375 15.1875 30.375H33.1875C33.498 30.375 33.75 30.123 33.75 29.8125V12.375H28.125ZM18.3375 10.125H23.2875C23.4743 10.125 23.625 10.2758 23.625 10.4625V12.0375C23.625 12.2242 23.4743 12.375 23.2875 12.375H18.3375C18.1507 12.375 18 12.2242 18 12.0375V10.4625C18 10.2758 18.1507 10.125 18.3375 10.125ZM30.0375 25.875H25.0875C24.9007 25.875 24.75 25.7243 24.75 25.5375V23.9625C24.75 23.7757 24.9007 23.625 25.0875 23.625H30.0375C30.2243 23.625 30.375 23.7757 30.375 23.9625V25.5375C30.375 25.7243 30.2243 25.875 30.0375 25.875ZM30.0375 21.375H18.3375C18.1507 21.375 18 21.2243 18 21.0375V19.4625C18 19.2757 18.1507 19.125 18.3375 19.125H30.0375C30.2243 19.125 30.375 19.2757 30.375 19.4625V21.0375C30.375 21.2243 30.2243 21.375 30.0375 21.375ZM30.0375 16.875H18.3375C18.1507 16.875 18 16.7242 18 16.5375V14.9625C18 14.7758 18.1507 14.625 18.3375 14.625H30.0375C30.2243 14.625 30.375 14.7758 30.375 14.9625V16.5375C30.375 16.7242 30.2243 16.875 30.0375 16.875Z" fill="#480FFF"/>
<path d="M5.0625 20.8125C3.50887 20.8125 2.25 19.5536 2.25 18C2.25 16.4464 3.50887 15.1875 5.0625 15.1875C6.21563 15.1875 7.20337 15.8827 7.63763 16.875H12.9375V19.125H7.63763C7.20337 20.1172 6.21563 20.8125 5.0625 20.8125Z" fill="#480FFF"/>
<path d="M6.1875 32.0625C4.63387 32.0625 3.375 30.8036 3.375 29.25C3.375 27.477 5.0175 26.0921 6.82987 26.5185L8.6625 24.075C8.87512 23.7915 9.20813 23.625 9.5625 23.625H12.9375V25.875H10.125L8.62537 27.873C9.70987 29.7877 8.30025 32.0625 6.1875 32.0625Z" fill="#480FFF"/>
<path d="M6.1875 3.9375C8.30925 3.9375 9.70538 6.219 8.6265 8.127L10.125 10.125H12.9375V12.375H9.5625C9.20813 12.375 8.87512 12.2085 8.6625 11.925L6.831 9.4815C5.01637 9.90788 3.375 8.52187 3.375 6.75C3.375 5.19637 4.63387 3.9375 6.1875 3.9375Z" fill="#480FFF"/>
</svg>
