<svg width="33" height="33" viewBox="0 0 33 33" fill="none" xmlns="http://www.w3.org/2000/svg">
<g clip-path="url(#clip0_147_2272)">
<path d="M5.2745 21.7814C6.1875 22.5981 7.22288 23.2458 8.3325 23.7325L14.168 20.0681C15.3753 19.3064 16.9923 19.4865 18.0029 20.5026L19.965 22.4648C22.9061 20.2964 24.75 16.8273 24.75 13.0625C24.75 6.61788 19.5071 1.375 13.0625 1.375C6.61788 1.375 1.375 6.61788 1.375 13.0625C1.375 16.3886 2.79538 19.5663 5.2745 21.7814ZM13.585 14.0938H12.54C10.9326 14.0938 9.625 12.7861 9.625 11.1788C9.625 9.73363 10.6673 8.54425 12.0313 8.30225V7.21875C12.0313 6.6495 12.4933 6.1875 13.0625 6.1875C13.6318 6.1875 14.0938 6.6495 14.0938 7.21875V8.25H15.4688C16.038 8.25 16.5 8.712 16.5 9.28125C16.5 9.8505 16.038 10.3125 15.4688 10.3125H12.54C12.0698 10.3125 11.6875 10.6948 11.6875 11.165C11.6875 11.649 12.0698 12.0313 12.54 12.0313H13.585C15.1924 12.0313 16.5 13.3389 16.5 14.9463C16.5 16.3914 15.4578 17.5808 14.0938 17.8228V18.9049C14.0938 19.4741 13.6318 19.9361 13.0625 19.9361C12.4933 19.9361 12.0313 19.4741 12.0313 18.9049V17.875H10.6563C10.087 17.875 9.625 17.413 9.625 16.8438C9.625 16.2745 10.087 15.8125 10.6563 15.8125H13.585C14.0553 15.8125 14.4375 15.4303 14.4375 14.96C14.4375 14.476 14.0553 14.0938 13.585 14.0938Z" fill="#480FFF"/>
<path d="M31.625 16.5H26.125C25.5695 16.5 25.0662 16.8355 24.8545 17.3484C24.6414 17.8626 24.7596 18.4539 25.1529 18.8471L26.9307 20.625L21.3125 26.2433L16.7846 21.7154C16.335 21.263 15.6282 21.1846 15.0892 21.5187L0.651738 30.4562C0.00548795 30.8564 -0.192512 31.7034 0.206238 32.3482C0.466113 32.769 0.915738 33 1.37636 33C1.62386 33 1.87274 32.934 2.09824 32.7938L15.609 24.4296L20.339 29.1596C20.8766 29.6973 21.7456 29.6973 22.2832 29.1596L28.875 22.5692L30.6529 24.3471C30.9155 24.6098 31.2675 24.75 31.625 24.75C31.8024 24.75 31.9811 24.7156 32.1516 24.6455C32.6659 24.4324 33 23.9305 33 23.375V17.875C33 17.116 32.3854 16.5 31.625 16.5Z" fill="#480FFF"/>
</g>
<defs>
<clipPath id="clip0_147_2272">
<rect width="33" height="33" fill="white"/>
</clipPath>
</defs>
</svg>
