<svg width="30" height="30" viewBox="0 0 30 30" fill="none" xmlns="http://www.w3.org/2000/svg">
<path d="M0.529889 14.4645L7.44249 17.0445L10.1181 25.6492C10.2893 26.2003 10.9632 26.404 11.4105 26.0383L15.2637 22.8971C15.6676 22.568 16.2429 22.5516 16.665 22.858L23.6148 27.9037C24.0933 28.2515 24.7712 27.9893 24.8912 27.4111L29.9823 2.922C30.1133 2.2904 29.4927 1.7635 28.8913 1.9961L0.521789 12.9402C-0.178311 13.2102 -0.172212 14.2014 0.529889 14.4645ZM9.68689 15.6711L23.1967 7.3504C23.4395 7.2013 23.6893 7.5296 23.4808 7.723L12.3313 18.087C11.9394 18.4518 11.6866 18.94 11.615 19.4699L11.2352 22.2845C11.1849 22.6603 10.657 22.6976 10.5533 22.3339L9.09259 17.2014C8.92529 16.616 9.16909 15.9907 9.68689 15.6711Z" fill="#480FFF"/>
</svg>
