<svg width="32" height="32" viewBox="0 0 32 32" fill="none" xmlns="http://www.w3.org/2000/svg">
<path d="M10.1328 4.81599L15.8518 1.54799C15.9438 1.49499 16.0568 1.49499 16.1498 1.54799L21.8688 4.81599L15.9998 8.16899L10.1328 4.81599Z" fill="#480FFF"/>
<path d="M15 16.892L9.151 13.55C9.058 13.496 9 13.397 9 13.289V6.47198L15 9.90098V16.892Z" fill="#480FFF"/>
<path d="M23 6.47198V13.289C23 13.397 22.942 13.496 22.849 13.549L17 16.892V9.90098L23 6.47198Z" fill="#480FFF"/>
<path d="M2.13281 18.681L7.85181 15.413C7.94381 15.36 8.05681 15.36 8.14981 15.413L13.8688 18.681L7.99981 22.034L2.13281 18.681Z" fill="#480FFF"/>
<path d="M7 30.757L1.151 27.415C1.058 27.361 1 27.262 1 27.154V20.337L7 23.766V30.757Z" fill="#480FFF"/>
<path d="M15 20.337V27.154C15 27.262 14.942 27.361 14.849 27.414L9 30.757V23.766L15 20.337Z" fill="#480FFF"/>
<path d="M23.9998 22.034L18.1328 18.681L23.8518 15.413C23.9438 15.36 24.0568 15.36 24.1498 15.413L29.8688 18.681L23.9998 22.034Z" fill="#480FFF"/>
<path d="M25 23.766L31 20.337V27.154C31 27.262 30.942 27.361 30.849 27.414L25 30.757V23.766Z" fill="#480FFF"/>
<path d="M23 23.766V30.757L17.151 27.415C17.058 27.361 17 27.262 17 27.154V20.337L23 23.766Z" fill="#480FFF"/>
</svg>
