<svg width="32" height="32" viewBox="0 0 32 32" fill="none" xmlns="http://www.w3.org/2000/svg">
<path d="M18.9876 7.97488C14.5625 7.97488 10.9624 11.5749 10.9624 16C10.9624 20.4251 14.5625 24.0251 18.9876 24.0251C23.4127 24.0251 27.0127 20.4251 27.0127 16C27.0127 11.5749 23.4127 7.97488 18.9876 7.97488ZM22.7718 16.9375H18.0501V10.3568H19.9251V15.0625H22.7718V16.9375Z" fill="#480FFF"/>
<path d="M19.0234 2.98763C16.1684 2.97994 13.5273 3.89231 11.3784 5.444H4.28275C3.16406 5.444 2.25725 6.35088 2.25725 7.4695C2.25725 8.58819 3.16412 9.495 4.28275 9.495H7.71556C7.0615 10.626 6.57331 11.8647 6.28288 13.1778H2.0255C0.906875 13.1778 0 14.0846 0 15.2033C0 16.322 0.906875 17.2288 2.0255 17.2288H6.03325C6.15425 18.5206 6.46413 19.7574 6.935 20.9116H5.48825C4.36956 20.9116 3.46275 21.8184 3.46275 22.9371C3.46275 24.0558 4.36962 24.9626 5.48825 24.9626H9.55412C11.9249 27.4571 15.2745 29.0124 18.9876 29.0124C26.1741 29.0124 32 23.1866 32 16.0001C32 8.8105 26.2129 3.007 19.0234 2.98763ZM18.9876 25.9001C13.5286 25.9001 9.08744 21.4589 9.08744 16C9.08744 10.5411 13.5286 6.09988 18.9876 6.09988C24.4465 6.09988 28.8877 10.5411 28.8877 16C28.8877 21.4589 24.4465 25.9001 18.9876 25.9001Z" fill="#480FFF"/>
</svg>
