<svg width="34" height="34" viewBox="0 0 34 34" fill="none" xmlns="http://www.w3.org/2000/svg">
<path d="M22.8438 20.9568V26.5296C22.8438 26.6443 22.7822 26.7495 22.6834 26.8058L17.7959 29.5981V23.8404L22.8438 20.9568Z" fill="#480FFF"/>
<path d="M11.9565 19.5787L16.843 16.7864C16.9407 16.7301 17.0608 16.7301 17.1596 16.7864L22.045 19.5776L17.0002 22.4602L11.9565 19.5787Z" fill="#480FFF"/>
<path d="M31.6944 17.85C31.0569 20.4637 28.7301 22.2381 26.1588 22.3125H24.4376V19.5808C24.4376 19.2939 24.2835 19.0304 24.0359 18.8891L17.3953 15.0949C17.1509 14.9557 16.8492 14.9557 16.6048 15.0949L9.96419 18.8891C9.71663 19.0304 9.56256 19.2939 9.56256 19.5808V22.3125H6.99131C5.31256 22.3125 3.68694 21.4412 2.89006 19.9006C1.03069 16.3519 2.80506 12.8775 5.58881 11.8575C5.39756 8.86125 7.78819 6.47062 10.6782 6.83187C12.2401 4.62187 14.7476 3.1875 17.5738 3.1875C21.5826 3.1875 24.9412 6.0605 25.8847 9.94181C25.9463 10.1968 26.1652 10.3689 26.4266 10.3806C30.038 10.5411 32.5976 14.1217 31.6944 17.85Z" fill="#480FFF"/>
<path d="M16.2021 29.5981L11.3167 26.8069C11.2179 26.7506 11.1562 26.6443 11.1562 26.5306V20.9589L16.2021 23.8425V29.5981Z" fill="#480FFF"/>
</svg>
