<svg width="30" height="30" viewBox="0 0 30 30" fill="none" xmlns="http://www.w3.org/2000/svg">
<g clip-path="url(#clip0_147_321)">
<path d="M25.2356 11.6961C27.8627 11.6961 29.9998 9.55902 29.9998 6.93214C29.9998 4.30527 27.8627 2.16797 25.2356 2.16797C22.6087 2.16797 20.4717 4.30527 20.4717 6.93214C20.4717 9.55902 22.6087 11.6961 25.2356 11.6961ZM24.3567 4.85184H26.1148V9.01222H24.3567V4.85184Z" fill="#480FFF"/>
<path d="M25.2358 13.4539C21.6396 13.4539 18.7138 10.5283 18.7138 6.93214C18.7138 6.11115 18.8667 5.32516 19.1451 4.60098H3.50372C1.57173 4.60098 0 6.17271 0 8.10471V19.3549C0 21.2869 1.57173 22.8589 3.50372 22.8589H4.45175V27.8911L11.9685 22.8589H21.7545C23.6865 22.8589 25.2583 21.2869 25.2583 19.3549V13.4537C25.2509 13.4537 25.2434 13.4539 25.2358 13.4539ZM18.2845 16.8107H7.43454V15.0526H18.2845V16.8107ZM18.2845 12.5519H7.43454V10.7938H18.2845V12.5519Z" fill="#480FFF"/>
</g>
<defs>
<clipPath id="clip0_147_321">
<rect width="30" height="30" fill="white"/>
</clipPath>
</defs>
</svg>
