<svg width="28" height="28" viewBox="0 0 28 28" fill="none" xmlns="http://www.w3.org/2000/svg">
<path d="M21.875 16.625H24.5V20.125H21.875C20.9099 20.125 20.125 19.3401 20.125 18.375C20.125 17.4099 20.9099 16.625 21.875 16.625Z" fill="black"/>
<path d="M21.875 16.625H24.5V20.125H21.875C20.9099 20.125 20.125 19.3401 20.125 18.375C20.125 17.4099 20.9099 16.625 21.875 16.625Z" fill="#480FFF"/>
<path d="M24.5 21.4375V24.5C24.5 25.4669 23.7169 26.25 22.75 26.25H5.25C4.28312 26.25 3.5 25.4669 3.5 24.5V12.25C3.5 11.2831 4.28312 10.5 5.25 10.5H22.75C23.7169 10.5 24.5 11.2831 24.5 12.25V15.3125H21.875C20.1863 15.3125 18.8125 16.6863 18.8125 18.375C18.8125 20.0638 20.1863 21.4375 21.875 21.4375H24.5Z" fill="black"/>
<path d="M24.5 21.4375V24.5C24.5 25.4669 23.7169 26.25 22.75 26.25H5.25C4.28312 26.25 3.5 25.4669 3.5 24.5V12.25C3.5 11.2831 4.28312 10.5 5.25 10.5H22.75C23.7169 10.5 24.5 11.2831 24.5 12.25V15.3125H21.875C20.1863 15.3125 18.8125 16.6863 18.8125 18.375C18.8125 20.0638 20.1863 21.4375 21.875 21.4375H24.5Z" fill="#480FFF"/>
<path d="M11.8125 3.9375C11.8125 2.72912 12.7916 1.75 14 1.75C15.2084 1.75 16.1875 2.72912 16.1875 3.9375C16.1875 4.83437 15.6467 5.60263 14.875 5.94037V9.1875H13.125V5.94037C12.3532 5.60263 11.8125 4.83437 11.8125 3.9375Z" fill="black"/>
<path d="M11.8125 3.9375C11.8125 2.72912 12.7916 1.75 14 1.75C15.2084 1.75 16.1875 2.72912 16.1875 3.9375C16.1875 4.83437 15.6467 5.60263 14.875 5.94037V9.1875H13.125V5.94037C12.3532 5.60263 11.8125 4.83437 11.8125 3.9375Z" fill="#480FFF"/>
<path d="M4.8125 4.8125C4.8125 3.60412 5.79162 2.625 7 2.625C8.379 2.625 9.45613 3.9025 9.1245 5.31213L11.025 6.7375C11.2455 6.90287 11.375 7.16187 11.375 7.4375V9.1875H9.625V7.875L8.071 6.70862C6.58175 7.55212 4.8125 6.45575 4.8125 4.8125Z" fill="black"/>
<path d="M4.8125 4.8125C4.8125 3.60412 5.79162 2.625 7 2.625C8.379 2.625 9.45613 3.9025 9.1245 5.31213L11.025 6.7375C11.2455 6.90287 11.375 7.16187 11.375 7.4375V9.1875H9.625V7.875L8.071 6.70862C6.58175 7.55212 4.8125 6.45575 4.8125 4.8125Z" fill="#480FFF"/>
<path d="M23.1875 4.8125C23.1875 6.46275 21.413 7.54862 19.929 6.7095L18.375 7.875V9.1875H16.625V7.4375C16.625 7.16187 16.7545 6.90287 16.975 6.7375L18.8755 5.313C18.5439 3.90163 19.6219 2.625 21 2.625C22.2084 2.625 23.1875 3.60412 23.1875 4.8125Z" fill="black"/>
<path d="M23.1875 4.8125C23.1875 6.46275 21.413 7.54862 19.929 6.7095L18.375 7.875V9.1875H16.625V7.4375C16.625 7.16187 16.7545 6.90287 16.975 6.7375L18.8755 5.313C18.5439 3.90163 19.6219 2.625 21 2.625C22.2084 2.625 23.1875 3.60412 23.1875 4.8125Z" fill="#480FFF"/>
</svg>
