<svg width="36" height="36" viewBox="0 0 36 36" fill="none" xmlns="http://www.w3.org/2000/svg">
<path d="M14.0526 26.2012L11.1782 27.6019L9.18018 20.223L11.9904 18.8179C13.0479 18.2891 14.2134 18.0135 15.3958 18.0135H22.3494C23.2697 18.0135 24.0696 18.783 24.0696 19.7336C24.0696 20.6032 23.3664 21.375 22.4946 21.4459L20.1714 21.6382C18.6887 21.7631 18.8732 24.003 20.357 23.8815L22.6791 23.6891C24.4779 23.5406 25.9314 22.1726 26.2509 20.4469L30.6306 19.2454C32.4643 18.7425 33.4284 21.3514 31.7184 22.167L22.3832 27.2216C21.3549 27.7785 20.1501 27.9135 19.0251 27.5974L14.0526 26.2012Z" fill="#480FFF"/>
<path d="M9.07987 30.1365L2.25 33.75V21.9375L6.16275 20.1825C6.47775 20.0407 6.84562 20.2151 6.93563 20.5481L9.35888 29.4919C9.42863 29.7461 9.31163 30.0139 9.07987 30.1365Z" fill="#480FFF"/>
<path d="M26.7199 11.7439V17.8403L21.5449 14.8838C21.4402 14.823 21.375 14.7116 21.375 14.5901V8.68951L26.7199 11.7439Z" fill="#480FFF"/>
<path d="M27.5637 10.2825L22.2222 7.23038L27.3949 4.275C27.4984 4.21538 27.6255 4.21538 27.7302 4.275L32.904 7.2315L27.5637 10.2825Z" fill="#480FFF"/>
<path d="M28.4072 11.7439L33.7499 8.69061V14.5901C33.7499 14.7116 33.6846 14.823 33.58 14.8826L28.4072 17.838V11.7439Z" fill="#480FFF"/>
<path d="M11.8125 16.3125C10.2589 16.3125 9 15.0536 9 13.5C9 11.9464 10.2589 10.6875 11.8125 10.6875C12.9656 10.6875 13.9534 11.3827 14.3876 12.375H19.6875V14.625H14.3876C13.9534 15.6172 12.9656 16.3125 11.8125 16.3125Z" fill="#480FFF"/>
<path d="M12.9375 1.6875C15.0592 1.6875 16.4554 3.969 15.3765 5.877L16.875 7.875H19.6875V10.125H16.3125C15.9581 10.125 15.6251 9.9585 15.4125 9.675L13.581 7.2315C11.7664 7.65788 10.125 6.27187 10.125 4.5C10.125 2.94637 11.3839 1.6875 12.9375 1.6875Z" fill="#480FFF"/>
</svg>
