<svg width="28" height="28" viewBox="0 0 28 28" fill="none" xmlns="http://www.w3.org/2000/svg">
<g clip-path="url(#clip0_147_238)">
<path d="M13.827 16.3665C13.938 16.3217 14.0622 16.3217 14.1737 16.3665L15.3675 16.8439L14.0006 14.1102L12.6338 16.8439L13.827 16.3665Z" fill="#480FFF"/>
<path d="M13.9999 17.3026L12.4365 17.928L13.9999 19.8044L15.5632 17.928L13.9999 17.3026Z" fill="#480FFF"/>
<path d="M28 5.59995V2.33334C28 2.07522 27.791 1.86665 27.5333 1.86665H10.8747L8.19237 0.0783777C8.11578 0.0275156 8.02573 0 7.9333 0H0.466692C0.209047 0 0 0.20857 0 0.466693V5.60007L28 5.59995ZM23.3334 3.7333H25.6668C25.9244 3.7333 26.1335 3.94187 26.1335 4.19999C26.1335 4.45812 25.9244 4.66669 25.6668 4.66669H23.3334C23.0758 4.66669 22.8667 4.45812 22.8667 4.19999C22.8667 3.94187 23.0758 3.7333 23.3334 3.7333ZM15.4 3.7333H21.4667C21.7243 3.7333 21.9334 3.94187 21.9334 4.19999C21.9334 4.45812 21.7243 4.66669 21.4667 4.66669H15.4C15.1424 4.66669 14.9333 4.45812 14.9333 4.19999C14.9333 3.94187 15.1424 3.7333 15.4 3.7333ZM2.33334 3.7333H13.5334C13.791 3.7333 14.0001 3.94187 14.0001 4.19999C14.0001 4.45812 13.791 4.66669 13.5334 4.66669H2.33334C2.0757 4.66669 1.86665 4.45812 1.86665 4.19999C1.86665 3.94187 2.0757 3.7333 2.33334 3.7333Z" fill="#480FFF"/>
<path d="M0 6.53333V26.2725C0 27.2249 0.775081 28.0001 1.72764 28.0001H26.2725C27.2254 28.0001 28.0001 27.225 28.0001 26.2725V6.53333H0ZM14.0001 25.2001C9.36839 25.2001 5.60007 21.4317 5.60007 16.8001C5.60007 12.1684 9.36839 8.4001 14.0001 8.4001C18.6317 8.4001 22.4 12.1684 22.4 16.8001C22.4 21.4317 18.6317 25.2001 14.0001 25.2001Z" fill="#480FFF"/>
<path d="M13.9999 9.33337C9.88295 9.33337 6.5332 12.6831 6.5332 16.8001C6.5332 20.9171 9.88295 24.2668 13.9999 24.2668C18.1174 24.2668 21.4666 20.9171 21.4666 16.8001C21.4666 12.6831 18.1173 9.33337 13.9999 9.33337ZM8.39985 16.8C8.39985 17.0581 8.19081 17.2667 7.93316 17.2667C7.67552 17.2667 7.46647 17.0581 7.46647 16.8C7.46647 13.1973 10.3972 10.2666 13.9998 10.2666C14.2575 10.2666 14.4665 10.4752 14.4665 10.7333C14.4665 10.9915 14.2575 11.2 13.9998 11.2C10.912 11.2 8.39985 13.712 8.39985 16.8ZM11.2074 17.773C11.2023 17.5854 11.3147 17.3932 11.4011 17.2214C11.5028 17.018 11.6045 16.814 11.7062 16.6106C11.99 16.0431 12.2737 15.4757 12.5574 14.9087C12.8164 14.3911 13.075 13.8736 13.334 13.3561C13.417 13.19 13.4996 13.0243 13.5827 12.8582C13.7409 12.5419 14.2594 12.5419 14.4175 12.8582C14.5501 13.1228 14.6821 13.387 14.8142 13.6515C15.0989 14.2204 15.3836 14.7897 15.6678 15.3586C15.9371 15.8971 16.2063 16.4356 16.4756 16.9736C16.5844 17.1916 16.7798 17.4693 16.7948 17.7095C16.8089 17.9368 16.6394 18.0955 16.505 18.2565C16.3496 18.4427 16.1947 18.6289 16.0393 18.8152C15.6492 19.2833 15.259 19.7513 14.8689 20.2194C14.6985 20.4238 14.5287 20.6277 14.3583 20.8317C14.2697 20.938 14.1381 20.9991 13.9994 20.9991C13.8608 20.9991 13.7298 20.9376 13.641 20.8317L11.3077 18.0316C11.2381 17.9485 11.2097 17.8612 11.2074 17.773ZM20.0666 16.3334C20.3242 16.3334 20.5333 16.542 20.5333 16.8001C20.5333 20.4027 17.6026 23.3334 13.9999 23.3334C13.7423 23.3334 13.5332 23.1249 13.5332 22.8667C13.5332 22.6086 13.7423 22.4 13.9999 22.4C17.0879 22.4 19.5999 19.888 19.5999 16.8001C19.5999 16.542 19.8089 16.3334 20.0666 16.3334Z" fill="#480FFF"/>
</g>
<defs>
<clipPath id="clip0_147_238">
<rect width="28" height="28" fill="white"/>
</clipPath>
</defs>
</svg>
