<svg width="37" height="37" viewBox="0 0 37 37" fill="none" xmlns="http://www.w3.org/2000/svg">
<path d="M26.4607 23.628C24.7981 23.8021 23.12 23.5028 21.6201 22.7645C20.1202 22.0263 18.8595 20.8792 17.9833 19.4555C17.107 18.0318 16.651 16.3894 16.6677 14.7178C16.6845 13.0461 17.1733 11.4132 18.0779 10.0073C18.3778 9.54622 18.7183 9.11283 19.0954 8.71233C19.4128 8.21712 20.4978 7.84312 19.581 7.71226C13.7111 5.77519 7.35198 10.4063 7.45202 16.6038L7.45196 21.7837C7.47508 23.9401 5.85055 26.1197 4.4804 27.5708C4.26361 27.8095 4.12044 28.1058 4.06809 28.424C4.01575 28.7422 4.05646 29.0688 4.18534 29.3644C4.31422 29.66 4.52577 29.912 4.79454 30.0902C5.0633 30.2684 5.37784 30.3652 5.7003 30.3688L27.8598 30.3689C28.1842 30.3697 28.5018 30.2757 28.7735 30.0983C29.0451 29.9208 29.259 29.6679 29.3886 29.3704C29.5183 29.073 29.5581 28.7442 29.5032 28.4244C29.4483 28.1046 29.3011 27.8079 29.0796 27.5708C27.9585 26.4394 27.0689 25.1001 26.4607 23.628Z" fill="#480FFF"/>
<path d="M15.1411 5.96626C16.6219 5.74345 18.1325 5.82409 19.5811 6.20329C19.6196 5.1311 19.6225 3.91496 18.7601 3.12766C18.3658 2.74364 17.8674 2.48375 17.3268 2.38019C16.7862 2.27663 16.2271 2.33395 15.7188 2.54505C15.2105 2.75615 14.7752 3.11176 14.467 3.5678C14.1588 4.02385 13.9912 4.5603 13.9849 5.11069L13.9849 6.20329C14.3652 6.10136 14.7513 6.02221 15.1411 5.96626Z" fill="#480FFF"/>
<path d="M25.5417 7.37689C23.573 7.37888 21.6855 8.16141 20.2929 9.55292C18.9003 10.9444 18.1163 12.8314 18.1128 14.8C18.5209 24.6553 32.564 24.6524 32.9706 14.8C32.9671 12.8313 32.183 10.9444 30.7905 9.55291C29.3979 8.16142 27.5103 7.37889 25.5417 7.37689ZM26.8714 17.6444C26.8686 17.7959 26.8064 17.9402 26.6983 18.0463C26.5902 18.1525 26.4448 18.2119 26.2932 18.2119C26.1417 18.2119 25.9963 18.1525 25.8882 18.0463C25.7801 17.9402 25.7179 17.7958 25.7151 17.6444V13.3547L25.2006 13.8692C25.0918 13.9745 24.946 14.033 24.7946 14.032C24.6431 14.031 24.4981 13.9707 24.3906 13.864C24.2832 13.7573 24.2218 13.6127 24.2198 13.4612C24.2177 13.3098 24.2751 13.1636 24.3797 13.054L25.8828 11.551C25.9641 11.4718 26.0667 11.4182 26.1781 11.3966C26.2895 11.375 26.4047 11.3864 26.5097 11.4294C26.6147 11.4723 26.7048 11.545 26.7691 11.6385C26.8333 11.732 26.8689 11.8422 26.8714 11.9556L26.8714 17.6444Z" fill="#480FFF"/>
<path d="M12.418 31.8142C14.0726 35.6079 19.6827 35.6059 21.3442 31.8141L12.418 31.8142Z" fill="#480FFF"/>
</svg>
