<svg width="38" height="38" viewBox="0 0 38 38" fill="none" xmlns="http://www.w3.org/2000/svg">
<path d="M19.5938 7.125H18.4062C18.0785 7.125 17.8125 6.859 17.8125 6.53125V2.96875C17.8125 2.641 18.0785 2.375 18.4062 2.375H19.5938C19.9215 2.375 20.1875 2.641 20.1875 2.96875V6.53125C20.1875 6.859 19.9215 7.125 19.5938 7.125Z" fill="#480FFF"/>
<path d="M19.5938 11.875H18.4062C18.0785 11.875 17.8125 11.609 17.8125 11.2812V8.90625C17.8125 8.5785 18.0785 8.3125 18.4062 8.3125H19.5938C19.9215 8.3125 20.1875 8.5785 20.1875 8.90625V11.2812C20.1875 11.609 19.9215 11.875 19.5938 11.875Z" fill="#480FFF"/>
<path d="M24.3438 5.9375H23.1562C22.8285 5.9375 22.5625 5.6715 22.5625 5.34375V2.96875C22.5625 2.641 22.8285 2.375 23.1562 2.375H24.3438C24.6715 2.375 24.9375 2.641 24.9375 2.96875V5.34375C24.9375 5.6715 24.6715 5.9375 24.3438 5.9375Z" fill="#480FFF"/>
<path d="M24.3438 11.875H23.1562C22.8285 11.875 22.5625 11.609 22.5625 11.2812V7.71875C22.5625 7.391 22.8285 7.125 23.1562 7.125H24.3438C24.6715 7.125 24.9375 7.391 24.9375 7.71875V11.2812C24.9375 11.609 24.6715 11.875 24.3438 11.875Z" fill="#480FFF"/>
<path d="M10.0938 7.125H8.90625C8.5785 7.125 8.3125 6.859 8.3125 6.53125V2.96875C8.3125 2.641 8.5785 2.375 8.90625 2.375H10.0938C10.4215 2.375 10.6875 2.641 10.6875 2.96875V6.53125C10.6875 6.859 10.4215 7.125 10.0938 7.125Z" fill="#480FFF"/>
<path d="M10.0938 11.875H8.90625C8.5785 11.875 8.3125 11.609 8.3125 11.2812V8.90625C8.3125 8.5785 8.5785 8.3125 8.90625 8.3125H10.0938C10.4215 8.3125 10.6875 8.5785 10.6875 8.90625V11.2812C10.6875 11.609 10.4215 11.875 10.0938 11.875Z" fill="#480FFF"/>
<path d="M14.8438 5.9375H13.6562C13.3285 5.9375 13.0625 5.6715 13.0625 5.34375V2.96875C13.0625 2.641 13.3285 2.375 13.6562 2.375H14.8438C15.1715 2.375 15.4375 2.641 15.4375 2.96875V5.34375C15.4375 5.6715 15.1715 5.9375 14.8438 5.9375Z" fill="#480FFF"/>
<path d="M14.8438 11.875H13.6562C13.3285 11.875 13.0625 11.609 13.0625 11.2812V7.71875C13.0625 7.391 13.3285 7.125 13.6562 7.125H14.8438C15.1715 7.125 15.4375 7.391 15.4375 7.71875V11.2812C15.4375 11.609 15.1715 11.875 14.8438 11.875Z" fill="#480FFF"/>
<path d="M29.0938 7.125H27.9062C27.5785 7.125 27.3125 6.859 27.3125 6.53125V2.96875C27.3125 2.641 27.5785 2.375 27.9062 2.375H29.0938C29.4215 2.375 29.6875 2.641 29.6875 2.96875V6.53125C29.6875 6.859 29.4215 7.125 29.0938 7.125Z" fill="#480FFF"/>
<path d="M29.0938 11.875H27.9062C27.5785 11.875 27.3125 11.609 27.3125 11.2812V8.90625C27.3125 8.5785 27.5785 8.3125 27.9062 8.3125H29.0938C29.4215 8.3125 29.6875 8.5785 29.6875 8.90625V11.2812C29.6875 11.609 29.4215 11.875 29.0938 11.875Z" fill="#480FFF"/>
<path d="M32.6562 14.25H5.34375C5.016 14.25 4.75 14.516 4.75 14.8438V17.5667C4.75 17.7246 4.81294 17.8754 4.92337 17.9871L15.2629 28.3266C15.3746 28.4371 15.4375 28.5879 15.4375 28.7458V35.0396C15.4375 35.3079 15.7201 35.4825 15.96 35.3626L22.2336 32.2252C22.4354 32.1254 22.5625 31.92 22.5625 31.6956V28.7458C22.5625 28.5879 22.6254 28.4371 22.7359 28.3254L33.0754 17.9859C33.1871 17.8754 33.25 17.7234 33.25 17.5667V14.8438C33.25 14.516 32.984 14.25 32.6562 14.25ZM22.5483 22.5767L19 26.125L15.4517 22.5767C15.2273 22.3523 15.3864 21.9688 15.7035 21.9688H17.8125V16.625H20.1875V21.9688H22.2965C22.6136 21.9688 22.7727 22.3523 22.5483 22.5767Z" fill="#480FFF"/>
</svg>
