<svg width="33" height="33" viewBox="0 0 33 33" fill="none" xmlns="http://www.w3.org/2000/svg">
<path fill-rule="evenodd" clip-rule="evenodd" d="M25.0525 32.9924H7.894C6.98051 32.9924 6.25732 32.2388 6.25732 31.3557V29.2623H26.6892V31.3329C26.7196 32.2388 25.966 32.9924 25.0525 32.9924ZM6.25732 28.3031V1.66715C6.25732 0.75365 7.00335 0.00762939 7.894 0.00762939H11.1369V1.48445C11.1369 2.3142 11.8068 2.9841 12.6366 2.9841H20.3099C21.1397 2.9841 21.8096 2.3142 21.84 1.50728V0.00762939H25.0296C25.9431 0.00762939 26.6892 0.75365 26.6892 1.66715V28.3031H6.25732ZM17.0366 31.1426H15.9328C15.6663 31.1426 15.4532 30.9294 15.4532 30.663C15.4532 30.3889 15.6663 30.1758 15.9328 30.1758H17.0366C17.303 30.1758 17.5161 30.3889 17.5161 30.663C17.5161 30.9294 17.303 31.1426 17.0366 31.1426ZM16.4732 27.2526C15.9328 27.2526 15.377 27.1765 14.8366 27.0395C13.1999 26.6132 11.8296 25.5627 10.9999 24.1163C9.25663 21.1094 10.3072 17.2498 13.3065 15.5066C16.3134 13.7938 20.1729 14.8139 21.9161 17.8132C22.7459 19.2595 22.9895 20.98 22.5328 22.6166C22.1065 24.2229 21.0559 25.5931 19.5867 26.4229C18.6428 26.9557 17.5694 27.2526 16.4732 27.2526ZM13.7937 16.3135C11.2435 17.8132 10.3604 21.0865 11.8296 23.6367C12.5604 24.8699 13.7099 25.753 15.103 26.126C16.4961 26.5066 17.9196 26.2858 19.1528 25.5931C20.386 24.8699 21.2767 23.7433 21.6497 22.3426C22.0227 20.9495 21.84 19.5031 21.1092 18.2699C19.64 15.7197 16.3667 14.8367 13.7937 16.3135ZM15.4836 25.5627C15.4532 25.5627 15.3999 25.5627 15.3694 25.5398C15.1867 25.4865 15.0269 25.3267 15.0269 25.1059L14.8899 21.8934L12.157 20.1502C11.9971 20.036 11.9134 19.8229 11.9667 19.6402C12.02 19.4498 12.2103 19.29 12.393 19.29L18.8103 19.054C19.0234 18.9474 19.2975 19.0312 19.4193 19.2367C19.4345 19.2595 19.4497 19.2824 19.4573 19.3128C19.5335 19.4651 19.5258 19.6402 19.4497 19.7696L15.8795 25.3495C15.8033 25.4865 15.6435 25.5627 15.4836 25.5627ZM13.9231 20.1502L15.339 21.0561L17.0975 20.0436L13.9231 20.1502ZM15.811 21.8782L15.8795 23.5834L17.6151 20.8353L15.811 21.8782ZM23.4463 4.99379H19.9597C19.6933 4.99379 19.4802 4.78064 19.4802 4.5142C19.4802 4.24016 19.6933 4.05746 19.9597 4.05746H23.4463C23.7127 4.05746 23.9258 4.27061 23.9258 4.5142C23.9258 4.75019 23.7127 4.99379 23.4463 4.99379ZM18.0262 4.99379H9.52307C9.25663 4.99379 9.04348 4.78064 9.04348 4.5142C9.04348 4.24016 9.25663 4.05746 9.52307 4.05746H18.0262C18.3002 4.05746 18.5134 4.27061 18.5134 4.5142C18.5134 4.75019 18.2698 4.99379 18.0262 4.99379ZM23.4463 7.54396H17.4629C17.1964 7.54396 16.9833 7.33081 16.9833 7.05677C16.9833 6.79033 17.1964 6.57718 17.4629 6.57718H23.4463C23.7127 6.57718 23.9258 6.79033 23.9258 7.05677C23.9258 7.33081 23.7127 7.54396 23.4463 7.54396ZM15.5065 7.54396H9.52307C9.25663 7.54396 9.04348 7.33081 9.04348 7.05677C9.04348 6.79033 9.25663 6.57718 9.52307 6.57718H15.5065C15.7729 6.57718 15.9937 6.79033 15.9937 7.05677C15.9937 7.33081 15.7729 7.54396 15.5065 7.54396ZM23.4463 10.0332H9.52307C9.25663 10.0332 9.04348 9.82009 9.04348 9.55365C9.04348 9.28722 9.25663 9.07407 9.52307 9.07407H23.4463C23.7127 9.07407 23.9258 9.28722 23.9258 9.55365C23.9258 9.82009 23.7127 10.0332 23.4463 10.0332ZM23.4463 12.5606H9.52307C9.25663 12.5606 9.04348 12.3398 9.04348 12.0734C9.04348 11.8069 9.25663 11.5938 9.52307 11.5938H23.4463C23.7127 11.5938 23.9258 11.8069 23.9258 12.0734C23.9258 12.3398 23.7127 12.5606 23.4463 12.5606ZM12.0732 0.00762939H20.8732V1.50728C20.8732 1.82701 20.6296 2.07061 20.3099 2.07061H12.6366C12.3168 2.07061 12.0732 1.82701 12.0732 1.50728V0.00762939Z" fill="#480FFF"/>
</svg>
