<svg width="36" height="36" viewBox="0 0 36 36" fill="none" xmlns="http://www.w3.org/2000/svg">
<path d="M2.25 7.875C2.25 6.32137 3.50887 5.0625 5.0625 5.0625C6.21563 5.0625 7.20337 5.75775 7.63763 6.75H10.6875C11.0486 6.75 11.3884 6.92325 11.5999 7.21688L14.3528 11.0284C13.6823 11.3805 13.0702 11.826 12.5302 12.348L10.1126 9H7.63763C7.20337 9.99225 6.21563 10.6875 5.0625 10.6875C3.50887 10.6875 2.25 9.42863 2.25 7.875Z" fill="#480FFF"/>
<path d="M2.25 18C2.25 16.4464 3.50887 15.1875 5.0625 15.1875C6.21563 15.1875 7.20337 15.8827 7.63763 16.875H10.215C10.0957 17.7064 10.0957 18.2959 10.215 19.125H7.63763C7.20337 20.1172 6.21563 20.8125 5.0625 20.8125C3.50887 20.8125 2.25 19.5536 2.25 18Z" fill="#480FFF"/>
<path d="M15.1875 5.0625C15.1875 3.50887 16.4464 2.25 18 2.25C19.5536 2.25 20.8125 3.50887 20.8125 5.0625C20.8125 6.21563 20.1172 7.20337 19.125 7.63763V10.215C18.2947 10.0957 17.7041 10.0957 16.875 10.215V7.63763C15.8827 7.20337 15.1875 6.21563 15.1875 5.0625Z" fill="#480FFF"/>
<path d="M21.6484 11.0273L24.4013 7.21575C24.6117 6.92325 24.9514 6.75 25.3126 6.75H28.3624C28.7967 5.75775 29.7844 5.0625 30.9376 5.0625C32.4912 5.0625 33.7501 6.32137 33.7501 7.875C33.7501 9.42863 32.4912 10.6875 30.9376 10.6875C29.7844 10.6875 28.7967 9.99225 28.3624 9H25.8874L23.4698 12.3469C22.9309 11.8249 22.3189 11.3794 21.6484 11.0273Z" fill="#480FFF"/>
<path d="M33.7502 28.125C33.7502 29.6786 32.4913 30.9375 30.9377 30.9375C29.7846 30.9375 28.7968 30.2422 28.3626 29.25H25.3127C24.9516 29.25 24.6118 29.0767 24.4003 28.7831L21.6475 24.9716C22.318 24.6195 22.93 24.174 23.47 23.652L25.8876 27H28.3626C28.7968 26.0077 29.7846 25.3125 30.9377 25.3125C32.4913 25.3125 33.7502 26.5714 33.7502 28.125Z" fill="#480FFF"/>
<path d="M14.3516 24.9728L11.5988 28.7843C11.3884 29.0768 11.0486 29.25 10.6875 29.25H7.63763C7.20337 30.2423 6.21563 30.9375 5.0625 30.9375C3.50887 30.9375 2.25 29.6786 2.25 28.125C2.25 26.5714 3.50887 25.3125 5.0625 25.3125C6.21563 25.3125 7.20337 26.0078 7.63763 27H10.1126L12.5302 23.6531C13.0691 24.1751 13.6811 24.6206 14.3516 24.9728Z" fill="#480FFF"/>
<path d="M33.7502 18C33.7502 19.5536 32.4913 20.8125 30.9377 20.8125C29.7845 20.8125 28.7968 20.1172 28.3625 19.125H25.7852C25.9044 18.2947 25.9044 17.7041 25.7852 16.875H28.3625C28.7968 15.8827 29.7845 15.1875 30.9377 15.1875C32.4913 15.1875 33.7502 16.4464 33.7502 18Z" fill="#480FFF"/>
<path d="M20.8125 30.9375C20.8125 32.4911 19.5536 33.75 18 33.75C16.4464 33.75 15.1875 32.4911 15.1875 30.9375C15.1875 29.7843 15.8827 28.7966 16.875 28.3623V25.785C17.7053 25.9042 18.2947 25.9042 19.125 25.785V28.3623C20.1172 28.7966 20.8125 29.7843 20.8125 30.9375Z" fill="#480FFF"/>
<path d="M24.1875 18C24.1875 21.4178 21.4178 24.1875 18 24.1875C14.5822 24.1875 11.8125 21.4178 11.8125 18C11.8125 14.5822 14.5822 11.8125 18 11.8125C21.4178 11.8125 24.1875 14.5822 24.1875 18Z" fill="#480FFF"/>
</svg>
