<svg width="26" height="27" viewBox="0 0 26 27" fill="none" xmlns="http://www.w3.org/2000/svg">
<g clip-path="url(#clip0_147_2364)">
<path d="M13 0.131714C20.1684 0.131714 26 6.01847 26 13.2547C26 20.491 20.1684 26.3778 13 26.3778C5.83157 26.3778 0 20.491 0 13.2547C0 6.01847 5.83157 0.131714 13 0.131714ZM8.98407 14.0279L14.4008 19.4958C14.612 19.7091 14.8893 19.8163 15.1667 19.8163C15.444 19.8163 15.7214 19.7091 15.9326 19.4958C16.3562 19.0683 16.3562 18.3771 15.9326 17.9495L11.2818 13.2547L15.9326 8.55998C16.3561 8.13241 16.3561 7.44124 15.9326 7.01367C15.509 6.58609 14.8243 6.58609 14.4008 7.01367L8.98407 12.4816C8.5605 12.9092 8.5605 13.6003 8.98407 14.0279Z" fill="#480FFF"/>
</g>
<defs>
<clipPath id="clip0_147_2364">
<rect width="26" height="27" fill="white" transform="matrix(-1 0 0 1 26 0)"/>
</clipPath>
</defs>
</svg>
